<svg xmlns="http://www.w3.org/2000/svg" width="300" height="300" fill="none" viewBox="0 0 300 300"><path fill="#f1471d" d="M62.6 68.3h147.53c9.64-4.33 12.84-21.57 15.24-29.29.83-2.7 5.03-14.5 6.74-16.33 1.34-1.45 6.02-1.33 10.6-.1 8.22 2.22 9.15 2.03 7.3 5.89-.62 1.31-1.29 2.81-1.24 3.37-2.39 6.94-12.92 30.25-6.81 37.82a31.5 31.5 0 0 1 12.98 7.79 31 31 0 0 1 9.2 22.04V268.8c0 8.59-3.52 16.39-9.2 22.04a31.3 31.3 0 0 1-22.15 9.15H62.6c-8.63 0-16.47-3.5-22.15-9.15a31 31 0 0 1-9.2-22.04V99.49c0-8.6 3.52-16.4 9.2-22.04a31.3 31.3 0 0 1 22.15-9.16"/><path fill="#5fa024" fill-rule="evenodd" d="M300 60.9c-8.88 11.94-34.89 15.15-47.24 3.85-10.84-9.9-3.31-19.82 9.49-19.06 16.55.99 16.51 16.3 37.75 15.2M167.03 0c-6.4 18.66 9.91 48.01 31.83 51.74 19.21 3.26 24.4-12.39 13.8-24.96-13.74-16.27-30.61-4.03-45.63-26.78" clip-rule="evenodd"/><path fill="#fff" d="M210.83 105.57v155.15h-35.49l-.1-104.74-14.1 104.74h-24.83l-14.89-102.39-.1 102.4H85.84V105.56h52.4c1.48 9.38 3.1 20.43 4.84 33.05l5.75 39.4 9.23-72.45z"/></svg>