<svg width="40" height="40" viewBox="0 0 40 40" fill="none" xmlns="http://www.w3.org/2000/svg">
<path d="M5.49998 40H34.5C34.7515 40 34.9639 39.813 34.9959 39.5635L39.9959 0.563896C40.031 0.290217 39.8374 0.0394876 39.5635 0.00457585C39.2901 -0.0327773 39.0393 0.162777 39.0042 0.436944L38.153 7.07634C35.8444 7.17412 34.5992 8.36359 33.4978 9.42098C32.3858 10.4886 31.3357 11.4969 29.2295 11.4969C27.1248 11.4969 26.075 10.4886 24.9639 9.42122C23.8149 8.31772 22.5127 7.06676 20.0054 7.06676C17.4961 7.06676 16.1929 8.31748 15.043 9.42122C13.9307 10.4886 12.8801 11.4969 10.7732 11.4969C8.66649 11.4969 7.61595 10.4886 6.50364 9.42098C5.40199 8.36356 4.15632 7.17405 1.84705 7.07631L0.995823 0.436944C0.960666 0.162777 0.709201 -0.032289 0.436496 0.00457585C0.16257 0.0394876 -0.0310341 0.290217 0.00412217 0.563896L5.00413 39.5635C5.03611 39.813 5.24851 40 5.49998 40ZM5.81126 10.1424C6.96092 11.2462 8.26414 12.4969 10.7732 12.4969C13.2822 12.4969 14.5854 11.2462 15.7353 10.1427C16.8477 9.07504 17.8984 8.06675 20.0054 8.06675C22.1101 8.06675 23.1599 9.07504 24.271 10.1424C25.4199 11.2459 26.7222 12.4969 29.2295 12.4969C31.7381 12.4969 33.0408 11.2459 34.1905 10.1424C35.2205 9.15331 36.2091 8.22568 38.0225 8.09339L34.0601 39H5.93992L1.97745 8.09336C3.79179 8.22559 4.78047 9.15328 5.81126 10.1424Z" fill="#1D1D1D"/>
<path d="M10.5281 28.5287C12.4734 28.5287 14.0562 26.946 14.0562 25.0007C14.0562 23.0554 12.4734 21.4727 10.5281 21.4727C8.58277 21.4727 7 23.0554 7 25.0007C7 26.946 8.58277 28.5287 10.5281 28.5287ZM10.5281 22.4726C11.9221 22.4726 13.0562 23.6067 13.0562 25.0007C13.0562 26.3947 11.9221 27.5287 10.5281 27.5287C9.13404 27.5287 8 26.3947 8 25.0007C8 23.6067 9.13404 22.4726 10.5281 22.4726Z" fill="#1D1D1D"/>
<path d="M19.9998 28.5287C21.9451 28.5287 23.5278 26.946 23.5278 25.0007C23.5278 23.0554 21.9451 21.4727 19.9998 21.4727C18.0544 21.4727 16.4717 23.0554 16.4717 25.0007C16.4717 26.946 18.0544 28.5287 19.9998 28.5287ZM19.9998 22.4726C21.3938 22.4726 22.5278 23.6067 22.5278 25.0007C22.5278 26.3947 21.3938 27.5287 19.9998 27.5287C18.6057 27.5287 17.4717 26.3947 17.4717 25.0007C17.4717 23.6067 18.6057 22.4726 19.9998 22.4726Z" fill="#1D1D1D"/>
<path d="M29.4724 28.5287C31.4177 28.5287 33.0005 26.946 33.0005 25.0007C33.0005 23.0554 31.4177 21.4727 29.4724 21.4727C27.5271 21.4727 25.9443 23.0554 25.9443 25.0007C25.9443 26.946 27.5271 28.5287 29.4724 28.5287ZM29.4724 22.4726C30.8665 22.4726 32.0005 23.6067 32.0005 25.0007C32.0005 26.3947 30.8665 27.5287 29.4724 27.5287C28.0784 27.5287 26.9443 26.3947 26.9443 25.0007C26.9443 23.6067 28.0784 22.4726 29.4724 22.4726Z" fill="#1D1D1D"/>
</svg>
