<svg width="40" height="40" viewBox="0 0 40 40" fill="none" xmlns="http://www.w3.org/2000/svg">
<path d="M39.8535 0.146484C39.6582 -0.0488281 39.3418 -0.0488281 39.1465 0.146484L28.7672 10.5258C26.4623 8.39136 23.3816 7.0835 20 7.0835C16.6184 7.0835 13.5377 8.39136 11.2328 10.5258L0.853516 0.146484C0.658203 -0.0488281 0.341797 -0.0488281 0.146484 0.146484C-0.0488281 0.341797 -0.0488281 0.658203 0.146484 0.853516L10.5258 11.2328C8.39124 13.5377 7.08325 16.6184 7.08325 20C7.08325 23.3816 8.39124 26.4623 10.5258 28.7672L0.146484 39.1465C-0.0488281 39.3418 -0.0488281 39.6582 0.146484 39.8535C0.244141 39.9512 0.37207 40 0.5 40C0.62793 40 0.755859 39.9512 0.853516 39.8535L11.2328 29.4742C13.5377 31.6086 16.6184 32.9165 20 32.9165C23.3816 32.9165 26.4623 31.6086 28.7672 29.4742L39.1465 39.8535C39.2441 39.9512 39.3721 40 39.5 40C39.6279 40 39.7559 39.9512 39.8535 39.8535C40.0488 39.6582 40.0488 39.3418 39.8535 39.1465L29.4742 28.7672C31.6088 26.4623 32.9167 23.3816 32.9167 20C32.9167 16.6184 31.6088 13.5377 29.4742 11.2328L39.8535 0.853516C40.0488 0.658203 40.0488 0.341797 39.8535 0.146484ZM20 8.0835C23.1059 8.0835 25.9371 9.27893 28.0604 11.2325L20 19.293L11.9396 11.2325C14.0629 9.27893 16.8941 8.0835 20 8.0835ZM8.08325 20C8.08325 16.894 9.27884 14.0629 11.2325 11.9396L19.293 20L11.2325 28.0604C9.27884 25.9371 8.08325 23.106 8.08325 20ZM20 31.9165C16.8941 31.9165 14.0629 30.7211 11.9396 28.7675L20 20.707L28.0604 28.7675C25.9371 30.7211 23.1059 31.9165 20 31.9165ZM31.9167 20C31.9167 23.106 30.7212 25.9371 28.7675 28.0604L20.707 20L28.7675 11.9396C30.7212 14.0629 31.9167 16.894 31.9167 20Z" fill="#1D1D1D"/>
</svg>
