<svg xmlns="http://www.w3.org/2000/svg" width="200" height="48" viewBox="0 0 200 48"><defs><clipPath id="a"><path fill="none" d="M0 .05h200V48H0z"/></clipPath></defs><g clip-path="url(#a)"><path fill="#f1471d" d="M4.67 13.21h21.98c1.44-.65 1.91-3.23 2.27-4.39.12-.4.75-2.17 1-2.45.2-.22.9-.2 1.58-.01 1.23.33 1.36.3 1.09.88-.09.2-.19.42-.19.5-.36 1.04-1.93 4.53-1.02 5.66q1.12.35 1.93 1.17a4.6 4.6 0 0 1 1.37 3.3v25.36a4.7 4.7 0 0 1-4.67 4.67H4.67A4.7 4.7 0 0 1 0 43.23V17.87a4.7 4.7 0 0 1 4.67-4.67Z"/><path fill="#5fa024" fill-rule="evenodd" d="M40.74 10.94c-1.37 1.95-5.39 2.48-7.3.63-1.67-1.62-.51-3.24 1.47-3.11 2.56.16 2.55 2.66 5.83 2.48M18.81.05c-1.2 3.54 1.85 9.1 5.95 9.81 3.59.62 4.56-2.35 2.58-4.73-2.57-3.08-5.72-.76-8.53-5.08"/><path fill="#f1471d" d="M199.95 21.49v4.64h-3.55v18.6h-6.05v-18.6h-3.58v-4.64zm-14.59 0v23.24h-5.29l-3.14-10.57v10.57h-5.05V21.49h5.05l3.38 10.46V21.49zm-15.9 0v23.24h-6.05V21.49zm-15.82 3.97v5.17q1.02 0 1.42-.28t.41-1.82v-1.28q0-1.1-.39-1.45-.4-.34-1.43-.34Zm-6.05-3.97h4.27q4.28 0 5.79.33t2.47 1.69q.95 1.36.95 4.32 0 2.71-.68 3.64-.67.93-2.65 1.12 1.79.45 2.41 1.19t.76 1.37q.15.63.15 3.44v6.13h-5.61v-7.73q0-1.86-.29-2.31t-1.53-.45v10.49h-6.05V21.48Zm-8.7 3.97v5.92l.44.01q.83 0 1.15-.41t.32-1.7v-1.91q0-1.19-.37-1.55-.36-.36-1.54-.36m-6.05-3.97h6.09q2.47 0 3.79.39t1.99 1.12.91 1.77q.24 1.05.24 3.22v2.02q0 2.22-.46 3.24t-1.68 1.57-3.2.54h-1.62v9.37h-6.05zm-13.46 5.48q0-1.62-.18-2.07t-.72-.45a.8.8 0 0 0-.71.37q-.24.36-.24 2.15v10.85q0 2.02.16 2.49t.75.47c.59-.01.66-.18.77-.54q.17-.54.17-2.59V26.98Zm6.05 7.63q0 3.51-.17 4.95a5.5 5.5 0 0 1-3.38 4.51q-1.47.65-3.44.65c-1.97 0-2.36-.21-3.35-.61a5.6 5.6 0 0 1-3.46-4.48q-.17-1.44-.17-5.02v-3.98q0-3.5.17-4.96a5.5 5.5 0 0 1 3.38-4.51q1.47-.65 3.44-.65c1.97 0 2.35.21 3.34.61a5.6 5.6 0 0 1 3.46 4.48q.17 1.44.17 5.02v3.98Zm-16.14-5.04h-6.05v-2.11q0-2-.17-2.5t-.8-.5q-.54 0-.74.43a7 7 0 0 0-.2 2.21v11.14q0 1.56.2 2.06t.78.49q.64 0 .88-.56t.23-2.18v-2.75h-1.17v-3.53h7.05v12.46h-3.81l-.56-1.66a4 4 0 0 1-1.55 1.62q-.95.54-2.21.54a6 6 0 0 1-2.84-.74 5.4 5.4 0 0 1-2.87-4.12q-.17-1.2-.17-3.59v-6.9q0-3.33.36-4.83a5 5 0 0 1 2.06-2.77q1.7-1.25 4.39-1.25c2.69 0 3.23.36 4.4 1.09a5 5 0 0 1 2.28 2.59q.53 1.5.53 4.36v1Zm-16.26-8.58v23.24h-5.29L84.6 33.65v10.57h-5.05V20.98h5.05l3.38 10.46V20.98zM71.84 35.93q-.43-3.95-.92-9.79-.9 6.7-1.14 9.79h2.05Zm3.21-14.95 3.46 23.24h-6.17l-.33-4.17h-2.18l-.33 4.17h-6.25l3.07-23.24zm-12.86 0v23.24H56.9V28.53l-2.12 15.69h-3.7l-2.22-15.33v15.33h-5.3V20.98h7.81q.33 2.11.72 4.95l.86 5.9 1.38-10.85z"/><path fill="#fff" d="M9.02 25.8H7.28v-1.17q0-.51-.06-.63-.06-.13-.24-.13-.21 0-.27.15c-.06.15-.06.32-.06.66v3.11q0 .5.06.64t.26.15c.2 0 .21-.05.25-.15q.06-.15.06-.7v-.84h1.74v.26q0 1.04-.15 1.47t-.65.76-1.24.33c-.74 0-.93-.09-1.26-.28a1.3 1.3 0 0 1-.66-.77 5 5 0 0 1-.16-1.48v-1.96q0-.72.05-1.08t.29-.7.68-.53 1.01-.19q.77 0 1.27.3t.66.75.16 1.38v.64Zm3.89-1.71v1.15h-.96v4.34h-1.67v-4.34h-.96v-1.15zm3.84 0-.48 3.97q-.11.94-.19 1.29t-.25.57a1 1 0 0 1-.5.33q-.32.1-1.01.11h-1.01v-.88q.4 0 .5-.04.1-.05.11-.18 0-.06-.1-.58l-.92-4.6h1.52l.55 3.71.27-3.71h1.52Zm5.16 6.55h-1.12v-1.06h-2.82v1.06h-1.12v-2.37h.36q.32-.5.52-1.53.21-1.04.21-2.45v-.2h3.61v4.17h.36zm-2.02-2.38v-2.94h-.43v.06a8 8 0 0 1-.5 2.88zm4.16-5.38v.87h-1.72v-.87zm0 1.21v5.49h-1.72v-5.49zm4.34 5.49h-1.66v-2.16q-.32 0-.45.14-.12.14-.12.51v1.51h-1.53v-1.29q0-.49.05-.71a.6.6 0 0 1 .24-.34q.2-.12.66-.25-.6-.06-.78-.34a2 2 0 0 1-.18-1.03q0-.82.47-1.18.48-.36 2.05-.36h1.24v5.49Zm-1.66-3.11v-1.31h-.17a.4.4 0 0 0-.29.11q-.1.1-.11.49v.07q0 .4.12.52t.45.12m-14.98 14.5h-1.12v-1.06H7.81v1.06H6.69V38.6h.36q.32-.5.52-1.53.21-1.04.21-2.45v-.2h3.61v4.17h.36zm-2.02-2.38v-2.94H9.3v.06a8 8 0 0 1-.5 2.88zm4.14-4.17-.03.48q.22-.3.49-.44t.59-.14q.39 0 .67.21t.36.48q.07.27.07.93v2.31q0 .75-.09 1.07a1 1 0 0 1-.36.51q-.27.19-.66.19-.31 0-.58-.14a2 2 0 0 1-.48-.43v1.26h-1.67v-6.28zm.48 1.6q0-.51-.04-.62-.03-.1-.21-.11c-.18-.01-.18.04-.22.12q-.05.12-.05.6v2.28q0 .5.05.62.04.12.22.12c.18 0 .17-.04.2-.11q.04-.12.04-.55zm5.73-1.6-.48 3.97q-.11.95-.19 1.29t-.25.57a1 1 0 0 1-.5.33q-.32.1-1.01.11h-1.01v-.88q.4 0 .5-.04.1-.05.11-.18 0-.06-.1-.58l-.92-4.6h1.52l.55 3.71.27-3.71h1.52Zm1.95 0v2.14q.53 0 .53-.56v-.93q0-.57.19-.65h1.61q-.19.27-.19.8v.77q0 .4-.33.67a3 3 0 0 1-.51.28q-.25.12-.56.13l.54.14q.86.27.86.96v.96q0 .53.19.8h-1.61a1 1 0 0 1-.19-.65v-1.16q0-.56-.53-.56v2.36h-1.65v-5.49h1.65Zm6.19 0-.48 3.97q-.11.95-.19 1.29t-.25.57a1 1 0 0 1-.5.33q-.32.1-1.01.11h-1.01v-.88q.4 0 .5-.04.1-.05.11-.18 0-.06-.1-.58l-.92-4.6h1.52l.55 3.71.27-3.71h1.52Z"/></g></svg>
