<svg width="26" height="26" viewBox="0 0 26 26" fill="none" xmlns="http://www.w3.org/2000/svg">
<path d="M13 13.1094V23.5581" stroke="#F1471D" stroke-width="2" stroke-linecap="round" stroke-linejoin="round"/>
<path d="M3.32111 7.8125L13 13.11L22.6789 7.8125" stroke="#F1471D" stroke-width="2" stroke-linecap="round" stroke-linejoin="round"/>
<path d="M22.3275 18.5678L13.39 23.4611C13.2704 23.5266 13.1363 23.5608 13 23.5608C12.8637 23.5608 12.7296 23.5266 12.61 23.4611L3.6725 18.5678C3.54488 18.498 3.43835 18.3952 3.36403 18.2702C3.28971 18.1451 3.25033 18.0024 3.25 17.8569V8.14144C3.25033 7.99597 3.28971 7.85325 3.36403 7.72819C3.43835 7.60314 3.54488 7.50033 3.6725 7.4305L12.61 2.53722C12.7296 2.47179 12.8637 2.4375 13 2.4375C13.1363 2.4375 13.2704 2.47179 13.39 2.53722L22.3275 7.4305C22.4551 7.50033 22.5617 7.60314 22.636 7.72819C22.7103 7.85325 22.7497 7.99597 22.75 8.14144V17.8549C22.75 18.0007 22.7108 18.1438 22.6365 18.2693C22.5621 18.3947 22.4554 18.4979 22.3275 18.5678Z" stroke="#F1471D" stroke-width="2" stroke-linecap="round" stroke-linejoin="round"/>
<path d="M8.28345 4.90625L17.875 10.156V15.4373" stroke="#F1471D" stroke-width="2" stroke-linecap="round" stroke-linejoin="round"/>
</svg>
