<svg xmlns="http://www.w3.org/2000/svg" xmlns:xlink="http://www.w3.org/1999/xlink" style="display:none"><symbol id="arrow-right"><path d="M8.7 4.5l7.5 7.5-7.5 7.5" fill="none"/></symbol><symbol id="basket"><path d="M12 12.38v5.25M17.25 9.38l-5.25-6-5.25 6M16.95 12.38l-.52 5.25M7.05 12.38l.53 5.25M2.25 9.38h19.5l-1.41 10.6a.73.73 0 01-.25.47c-.14.12-.31.19-.49.19H4.41c-.18 0-.36-.07-.49-.19a.707.707 0 01-.25-.47L2.26 9.38z" fill="none"/></symbol><symbol id="close-20"><path fill="none" d="M12.5 7.5l-5 5m0-5l5 5m-2.5 5a7.5 7.5 0 100-15 7.5 7.5 0 000 15"/></symbol><symbol id="dropdown"><g fill="none"><path d="M13 6l-5 5-5-5"/></g></symbol><symbol id="lens"><path fill="none" d="M10.5 18a7.5 7.5 0 100-15 7.5 7.5 0 000 15m5.3-2.2L21 21"/></symbol><symbol id="merchandise-26"><path fill="none" d="M21.94 11.38V13c0 5.38-8.94 8.94-8.94 11.38 0-2.44-8.94-5.99-8.94-11.38v-1.62m4.06-5.69h9.75a4.87 4.87 0 014.88 4.88.8.8 0 01-.81.81H4.06a.8.8 0 01-.81-.81 4.87 4.87 0 014.88-4.88z"/><path fill="none" d="M13 5.69v-.81a3.25 3.25 0 013.25-3.25"/></symbol><symbol id="message"><path d="M7.85 12.35c.19 0 .35-.16.35-.35s-.16-.35-.35-.35-.35.16-.35.35.16.35.35.35zM12 12.35c.19 0 .35-.16.35-.35s-.16-.35-.35-.35-.35.16-.35.35.16.35.35.35zM16.15 12.35c.19 0 .35-.16.35-.35s-.16-.35-.35-.35-.35.16-.35.35.16.35.35.35z" fill="none"/><path d="M7.49 19.79a9.048 9.048 0 006.26 1.04 8.959 8.959 0 005.39-3.35 8.96 8.96 0 001.84-6.07 8.982 8.982 0 00-2.62-5.78 9.06 9.06 0 00-5.78-2.62c-2.18-.14-4.34.51-6.07 1.84a9.052 9.052 0 00-3.35 5.39A9.003 9.003 0 004.2 16.5L3.03 20a.81.81 0 00-.02.41c.03.14.1.26.2.36.1.1.22.17.36.2.14.03.28.03.41-.02l3.51-1.17z" fill="none"/></symbol><symbol id="phone"><path fill="none" d="M15.04 14a1 1 0 01.35-.12q.19-.02.36.06l4.42 1.98a.7.7 0 01.35.31q.12.21.1.46a4.53 4.53 0 01-4.5 3.93A12.7 12.7 0 013.37 7.87a4.56 4.56 0 013.93-4.5q.25-.03.46.1t.31.35l1.98 4.42a.7.7 0 01-.06.71l-2 2.38a1 1 0 00-.12.36q0 .2.07.37a9.5 9.5 0 004.01 3.98 1 1 0 00.37.07q.2 0 .36-.12l2.35-2z"/></symbol><symbol id="shop"><path d="M4.5 13.09v7.16h15v-7.16M5.06 3.75h13.88c.16 0 .32.05.45.15.13.1.22.24.27.39L21 9H3l1.34-4.71c.04-.16.14-.29.27-.39.13-.1.29-.15.45-.15z" fill="none"/><path d="M9 9v1.5c0 .8-.32 1.56-.88 2.12s-1.33.88-2.12.88-1.56-.32-2.12-.88S3 11.29 3 10.5V9M15 9v1.5c0 .8-.32 1.56-.88 2.12s-1.33.88-2.12.88-1.56-.32-2.12-.88S9 11.29 9 10.5V9M21 9v1.5c0 .8-.32 1.56-.88 2.12s-1.33.88-2.12.88-1.56-.32-2.12-.88S15 11.29 15 10.5V9" fill="none"/></symbol><symbol id="user-circle"><path d="M12 21a9 9 0 10-.001-18.001A9 9 0 0012 21z" fill="none"/><path d="M12 15c2.07 0 3.75-1.68 3.75-3.75S14.07 7.5 12 7.5s-3.75 1.68-3.75 3.75S9.93 15 12 15z" fill="none"/><path d="M5.98 18.69a6.746 6.746 0 012.49-2.7c1.06-.65 2.28-1 3.53-1s2.47.35 3.53 1c1.06.65 1.92 1.59 2.49 2.7" fill="none"/></symbol></svg>