<svg xmlns="http://www.w3.org/2000/svg" xmlns:xlink="http://www.w3.org/1999/xlink" style="display:none"><defs><clipPath id="clip0_447_35649"><path fill="#fff" d="M0 0h24v24H0z"/></clipPath><clipPath id="clip0_447_35676"><path fill="#fff" d="M0 0h24v24H0z"/></clipPath></defs><symbol id="address"><path fill="none" d="M12 12.75a3 3 0 100-6 3 3 0 000 6"/><path fill="none" d="M19.5 9.75c0 6.75-7.5 12-7.5 12s-7.5-5.25-7.5-12a7.49 7.49 0 1115 0"/></symbol><symbol id="arrow-right"><path d="M8.7 4.5l7.5 7.5-7.5 7.5" fill="none"/></symbol><symbol id="asterisk"><path d="M3.3 8l.12-3.06L.7 6.58 0 5.41l2.86-1.42L0 2.58l.7-1.17 2.72 1.64L3.3-.01h1.4l-.12 3.06L7.3 1.41 8 2.58 5.14 4 8 5.42l-.7 1.17-2.72-1.64.12 3.06H3.3z" fill="#f1471d"/></symbol><symbol id="at"><path fill="none" d="M12 15.75a3.75 3.75 0 100-7.5 3.75 3.75 0 000 7.5"/><path fill="none" d="M17.25 19.5c-1.43.95-3.41 1.5-5.25 1.5s-3.52-.53-5-1.52a9 9 0 01-3.82-9.24 9 9 0 0117.83 1.75c0 2.07-.75 3.75-2.62 3.75s-2.62-1.68-2.62-3.75V8.24"/></symbol><symbol id="basket"><path d="M12 12.38v5.25M17.25 9.38l-5.25-6-5.25 6M16.95 12.38l-.52 5.25M7.05 12.38l.53 5.25M2.25 9.38h19.5l-1.41 10.6a.73.73 0 01-.25.47c-.14.12-.31.19-.49.19H4.41c-.18 0-.36-.07-.49-.19a.707.707 0 01-.25-.47L2.26 9.38z" fill="none"/></symbol><symbol id="bonus-22"><path fill="none" d="M6.88 2.75V5.5m2.75-2.75V5.5m2.75-2.75V5.5M2.06 19.25h15.12m-10.71 0a7.6 7.6 0 01-4.41-6.87V8.26h15.12v4.12a7.5 7.5 0 01-4.41 6.87"/><path fill="none" d="M17.19 8.25A2.75 2.75 0 0119.94 11v.69a2.75 2.75 0 01-2.75 2.75h-.29"/></symbol><symbol id="check-round-26"><path fill="none" d="M8.94 13.81l2.44 2.44 5.69-5.69"/><path fill="none" d="M13 22.75a9.76 9.76 0 10-.01-19.51A9.76 9.76 0 0013 22.75"/></symbol><symbol id="close-20"><path fill="none" d="M12.5 7.5l-5 5m0-5l5 5m-2.5 5a7.5 7.5 0 100-15 7.5 7.5 0 000 15"/></symbol><symbol id="courier-26"><path fill="none" d="M13 13.11v10.45M3.32 7.81l9.68 5.3 9.68-5.3"/><path fill="none" d="M22.33 18.57l-8.94 4.89q-.18.1-.39.1a.6.6 0 01-.39-.1l-8.94-4.89a.8.8 0 01-.42-.71V8.14a.8.8 0 01.42-.71l8.94-4.89q.18-.1.39-.1a.6.6 0 01.39.1l8.94 4.89a.8.8 0 01.42.71v9.71a.8.8 0 01-.42.71z"/><path fill="none" d="M8.28 4.91l9.59 5.25v5.28"/></symbol><symbol id="delivery-1"><g fill="none"><g clip-path="url(#clip0_447_35649)" stroke="#F1471D" stroke-width="2" stroke-linecap="round" stroke-linejoin="round"><path d="M17.25 7.5h3.992a.75.75 0 01.695.469l1.313 3.281M2.25 13.5h15M18 20.25a2.25 2.25 0 100-4.5 2.25 2.25 0 000 4.5zM7.5 20.25a2.25 2.25 0 100-4.5 2.25 2.25 0 000 4.5zM15.75 18h-6"/><path d="M17.25 11.25h6v6a.75.75 0 01-.75.75h-2.25M5.25 18H3a.75.75 0 01-.75-.75V6.75A.75.75 0 013 6h14.25v9.878"/></g></g></symbol><symbol id="delivery-2"><g fill="none"><g clip-path="url(#clip0_447_35676)" stroke="#F1471D" stroke-width="2" stroke-linecap="round" stroke-linejoin="round"><path d="M2.25 20.25h21M4.5 3.75v16.5M16.5 20.25V3.75M21 20.25v-12M7.5 7.5H9M12 7.5h1.5M7.5 11.25H9M12 11.25h1.5M8.25 20.25V15h4.5v5.25M3.75 3.75h13.5M16.5 8.25h5.25"/></g></g></symbol><symbol id="delivery-3"><g fill="none"><path d="M15 1.5L13.5 9l6 2.25L9 22.5l1.5-7.5-6-2.25L15 1.5z" stroke="#F1471D" stroke-width="2" stroke-linecap="round" stroke-linejoin="round"/></g></symbol><symbol id="document-26"><path fill="none" d="M20.31 22.75H5.69a.8.8 0 01-.81-.81V4.06a.8.8 0 01.81-.81h9.75l5.69 5.69v13a.8.8 0 01-.81.81z"/><path fill="none" d="M15.44 3.25v5.69h5.69M9.75 13.81h6.5m-6.5 3.25h6.5"/></symbol><symbol id="double-quotes"><path fill="none" stroke="#f1471d" stroke-linecap="round" stroke-linejoin="round" stroke-width="2" d="M3.25 11.19h6.91q.34 0 .57.24c.23.24.24.36.24.57v6.5a.8.8 0 01-.81.81H4.07a.8.8 0 01-.81-.81V9.56A4.06 4.06 0 017.32 5.5m7.71 5.69h6.91a.8.8 0 01.81.81v6.5a.8.8 0 01-.81.81h-6.09a.8.8 0 01-.81-.81V9.56A4.06 4.06 0 0119.1 5.5m33.87 8.12h-6.91a.8.8 0 01-.81-.81v-6.5a.8.8 0 01.81-.81h6.09a.8.8 0 01.81.81v8.94a4.06 4.06 0 01-4.06 4.06m15.85-5.69h-6.91a.8.8 0 01-.81-.81v-6.5a.8.8 0 01.81-.81h6.09a.8.8 0 01.81.81v8.94a4.06 4.06 0 01-4.06 4.06"/></symbol><symbol id="dropdown"><g fill="none"><path d="M13 6l-5 5-5-5"/></g></symbol><symbol id="facebook-20"><path fill="none" d="M10 17.5a7.5 7.5 0 100-15 7.5 7.5 0 000 15"/><path fill="none" d="M13.12 6.88h-1.25a1.9 1.9 0 00-1.88 1.88v8.75M7.5 11.25h5"/></symbol><symbol id="home"><path fill="none" d="M3.5 20.84h17v-9.22q0-.15-.06-.29a1 1 0 00-.17-.25L12.54 3.4a1 1 0 00-.25-.17q-.14-.06-.3-.06c-.16 0-.2.02-.3.06a1 1 0 00-.25.17l-7.73 7.68a1 1 0 00-.17.25 1 1 0 00-.06.29v9.22z"/></symbol><symbol id="instagram-20"><circle cx="14.08" cy="5.67" r=".2" fill="none"/><circle cx="10" cy="10" r="3.13" fill="none"/><rect width="15" height="15" x="2.5" y="2.5" fill="none" rx="3.75" ry="3.75"/></symbol><symbol id="lens"><path fill="none" d="M10.5 18a7.5 7.5 0 100-15 7.5 7.5 0 000 15m5.3-2.2L21 21"/></symbol><symbol id="linkedin-20"><path d="M16.88 2.5H3.12c-.35 0-.62.28-.62.62v13.75c0 .35.28.62.62.62h13.75c.35 0 .62-.28.62-.62V3.12c0-.35-.28-.62-.62-.62zM9.38 8.75v5M6.88 8.75v5" fill="none"/><path d="M9.38 10.94c0-.58.23-1.14.64-1.55a2.195 2.195 0 013.1 0c.41.41.64.97.64 1.55v2.81M6.87 7.03c.28 0 .5-.22.5-.5s-.22-.5-.5-.5-.5.22-.5.5.22.5.5.5z" fill="none"/></symbol><symbol id="merchandise-26"><path fill="none" d="M21.94 11.38V13c0 5.38-8.94 8.94-8.94 11.38 0-2.44-8.94-5.99-8.94-11.38v-1.62m4.06-5.69h9.75a4.87 4.87 0 014.88 4.88.8.8 0 01-.81.81H4.06a.8.8 0 01-.81-.81 4.87 4.87 0 014.88-4.88z"/><path fill="none" d="M13 5.69v-.81a3.25 3.25 0 013.25-3.25"/></symbol><symbol id="message"><path d="M7.85 12.35c.19 0 .35-.16.35-.35s-.16-.35-.35-.35-.35.16-.35.35.16.35.35.35zM12 12.35c.19 0 .35-.16.35-.35s-.16-.35-.35-.35-.35.16-.35.35.16.35.35.35zM16.15 12.35c.19 0 .35-.16.35-.35s-.16-.35-.35-.35-.35.16-.35.35.16.35.35.35z" fill="none"/><path d="M7.49 19.79a9.048 9.048 0 006.26 1.04 8.959 8.959 0 005.39-3.35 8.96 8.96 0 001.84-6.07 8.982 8.982 0 00-2.62-5.78 9.06 9.06 0 00-5.78-2.62c-2.18-.14-4.34.51-6.07 1.84a9.052 9.052 0 00-3.35 5.39A9.003 9.003 0 004.2 16.5L3.03 20a.81.81 0 00-.02.41c.03.14.1.26.2.36.1.1.22.17.36.2.14.03.28.03.41-.02l3.51-1.17z" fill="none"/></symbol><symbol id="messenger-20"><path fill="none" d="M5.59 15v2.7l2.31-1.42c.63.23 1.33.3 2.1.3 3.85 0 7-3.08 7-6.97s-3.15-6.9-7-6.9-7 3.07-7 6.97a6.7 6.7 0 002.59 5.33z"/><path fill="none" d="M9.51 8.1l-2.66 3.38 2.59-.68 1.05.68 2.66-3.38-2.45.67z"/></symbol><symbol id="payment-22"><path fill="none" d="M19.25 4.81H2.75a.7.7 0 00-.69.69v11c0 .38.31.69.69.69h16.5a.7.7 0 00.69-.69v-11a.7.7 0 00-.69-.69m-4.81 9.63h2.75m-6.88 0h1.38M2.06 8.25h17.88"/></symbol><symbol id="phone"><path fill="none" d="M15.04 14a1 1 0 01.35-.12q.19-.02.36.06l4.42 1.98a.7.7 0 01.35.31q.12.21.1.46a4.53 4.53 0 01-4.5 3.93A12.7 12.7 0 013.37 7.87a4.56 4.56 0 013.93-4.5q.25-.03.46.1t.31.35l1.98 4.42a.7.7 0 01-.06.71l-2 2.38a1 1 0 00-.12.36q0 .2.07.37a9.5 9.5 0 004.01 3.98 1 1 0 00.37.07q.2 0 .36-.12l2.35-2z"/></symbol><symbol id="question-26"><path fill="none" d="M13 14.62v-.81c1.79 0 3.25-1.27 3.25-2.84S14.79 8.13 13 8.13 9.75 9.4 9.75 10.97v.41m4.06 7.31c0-.45-.36-.81-.81-.81s-.81.36-.81.81.36.81.81.81.81-.36.81-.81M22.75 13a9.76 9.76 0 11-19.51-.01 9.76 9.76 0 0119.51.01"/></symbol><symbol id="quote"><path fill="none" d="M10.97 14.22H4.06a.8.8 0 01-.81-.81v-6.5a.8.8 0 01.81-.81h6.09a.8.8 0 01.81.81v8.94a4.06 4.06 0 01-4.06 4.06m15.85-5.69h-6.91q-.34 0-.57-.24c-.23-.24-.24-.36-.24-.57v-6.5a.8.8 0 01.81-.81h6.09a.8.8 0 01.81.81v8.94a4.06 4.06 0 01-4.06 4.06"/></symbol><symbol id="remove"><path d="M20.25 6H3.75m6 4.5v6m4.5-6v6M18.75 6v14.25A.75.75 0 0118 21H6a.75.75 0 01-.75-.75V6m10.5 0V4.5a1.499 1.499 0 00-1.5-1.5h-4.5a1.499 1.499 0 00-1.5 1.5V6" fill="none"/></symbol><symbol id="return-26"><path fill="none" d="M8.12 12.19l-4.88 4.88 4.88 4.88"/><path fill="none" d="M8.12 5.69h8.94a5.66 5.66 0 015.69 5.69 5.66 5.66 0 01-5.69 5.69H3.25"/></symbol><symbol id="shop"><path d="M4.5 13.09v7.16h15v-7.16M5.06 3.75h13.88c.16 0 .32.05.45.15.13.1.22.24.27.39L21 9H3l1.34-4.71c.04-.16.14-.29.27-.39.13-.1.29-.15.45-.15z" fill="none"/><path d="M9 9v1.5c0 .8-.32 1.56-.88 2.12s-1.33.88-2.12.88-1.56-.32-2.12-.88S3 11.29 3 10.5V9M15 9v1.5c0 .8-.32 1.56-.88 2.12s-1.33.88-2.12.88-1.56-.32-2.12-.88S9 11.29 9 10.5V9M21 9v1.5c0 .8-.32 1.56-.88 2.12s-1.33.88-2.12.88-1.56-.32-2.12-.88S15 11.29 15 10.5V9" fill="none"/></symbol><symbol id="sizes"><path d="M16.25 4.88h4.88v4.88M14.62 11.38l6.5-6.5M9.75 21.12H4.87v-4.88M11.38 14.62l-6.5 6.5" fill="none" stroke="#f1471d" stroke-linecap="round" stroke-linejoin="round" stroke-width="2"/></symbol><symbol id="taxy-26"><path fill="none" d="M1.62 13h22.75m-1.62 6.5v2.44a.8.8 0 01-.81.81H19.5a.8.8 0 01-.81-.81V19.5m-11.38 0v2.44a.8.8 0 01-.81.81H4.06a.8.8 0 01-.81-.81V19.5m3.25-3.25h1.62m9.76 0h1.62"/><path fill="none" d="M22.75 13l-3.02-5.28a.8.8 0 00-.71-.41H6.97a1 1 0 00-.41.11 1 1 0 00-.3.3L3.24 13v6.5h19.5z"/><path fill="none" d="M16.25 7.31l-1.42-3.55a1 1 0 00-.3-.37 1 1 0 00-.45-.14h-2.15a1 1 0 00-.45.14 1 1 0 00-.3.37L9.76 7.31"/></symbol><symbol id="telegram-20"><path fill="none" d="M6 10.85l7.05 6.18a1 1 0 00.29.14q.17.04.32-.02a1 1 0 00.27-.17 1 1 0 00.15-.28l3.18-13.79v-.04l-.02-.03-.04-.02h-.04L1.31 9.01q-.15.06-.24.2c-.09.14-.08.19-.07.3q0 .15.12.28.1.12.27.15zm0 0l11.2-8.03"/><path fill="none" d="M9.47 13.89l-2.39 2.48a1 1 0 01-.32.18.6.6 0 01-.36-.03.6.6 0 01-.39-.58v-5.09"/></symbol><symbol id="tiktok-20"><path d="M13.12 8.28c1.27.92 2.81 1.41 4.38 1.41V6.57a4.367 4.367 0 01-4.37-4.37h-3.12v10.31c0 .39-.11.78-.3 1.11a2.2 2.2 0 01-1.95 1.07c-.39-.01-.77-.13-1.1-.34a2.2 2.2 0 01-.78-.85 2.22 2.22 0 01-.24-1.13c.02-.39.15-.77.37-1.09.22-.32.52-.58.87-.75V7.19c-2.49.44-4.38 2.7-4.38 5.31 0 1.41.56 2.76 1.56 3.76a5.314 5.314 0 007.52 0c1-1 1.56-2.35 1.56-3.76V8.28z" fill="none"/></symbol><symbol id="time-22"><path fill="none" d="M11 19.25a8.25 8.25 0 100-16.5 8.25 8.25 0 000 16.5"/><path fill="none" d="M11 6.19V11h4.81"/></symbol><symbol id="time"><path fill="none" d="M12 21a9 9 0 100-18 9 9 0 000 18"/><path fill="none" d="M12 6.75V12h5.25"/></symbol><symbol id="user-circle"><path d="M12 21a9 9 0 10-.001-18.001A9 9 0 0012 21z" fill="none"/><path d="M12 15c2.07 0 3.75-1.68 3.75-3.75S14.07 7.5 12 7.5s-3.75 1.68-3.75 3.75S9.93 15 12 15z" fill="none"/><path d="M5.98 18.69a6.746 6.746 0 012.49-2.7c1.06-.65 2.28-1 3.53-1s2.47.35 3.53 1c1.06.65 1.92 1.59 2.49 2.7" fill="none"/></symbol><symbol id="viber-20"><path fill="none" d="M10.82 6.08a3.4 3.4 0 012.41 2.38m-2.75-1.03q1.08.3 1.37 1.36m-.84 1.75s.1-.05.16-.06q.08 0 .17.03l2.03.9q.11.05.16.14t.04.21a2.06 2.06 0 01-2.06 1.78 6 6 0 01-4.13-1.69 5.7 5.7 0 01-1.71-4.08c0-.5.18-.98.51-1.35s.79-.62 1.29-.68q.11-.01.21.04t.14.16l.91 2q.03.08.03.16a.3.3 0 01-.05.16l-.92 1.08s-.05.1-.06.16q0 .1.03.17a4.3 4.3 0 001.84 1.8q.08.04.17.03.1 0 .16-.06z"/><path fill="none" d="M15.63 4.26c-.38-.35-1.92-1.44-5.34-1.45 0 0-4.04-.24-6.02 1.53-1.1 1.08-1.48 2.65-1.52 4.59s-.09 5.6 3.5 6.59v1.51s0 .61.39.74c.5.15.79-.31 1.26-.81l.89-.99q2.31.21 4.56-.33c.5-.16 3.3-.51 3.76-4.16.49-3.76-.21-6.14-1.47-7.21z"/></symbol><symbol id="whatsapp-20"><path fill="none" d="M6.43 16.02A7.01 7.01 0 0017 10c0-3.85-3.15-7-7-7a7.02 7.02 0 00-6.09 10.5l-.68 2.61c-.1.39.26.75.65.64z"/><path fill="none" d="M13.15 11.99q0 .17-.08.34t-.21.32q-.22.25-.52.37-.28.12-.62.12-.48 0-1.03-.23c-.55-.23-.73-.36-1.09-.62a9 9 0 01-1.91-1.91 6 6 0 01-.62-1.07q-.23-.54-.23-1.03 0-.32.11-.61t.36-.53q.3-.3.66-.3.14 0 .26.06l.21.18.73 1.03q.09.12.13.22t.04.19q0 .12-.07.22a1 1 0 01-.18.22l-.24.25s-.05.08-.05.13v.07q0 .04.03.06.09.15.29.4a10 10 0 00.96.96q.24.2.41.29l.06.03.08.01q.07 0 .13-.05l.24-.24a1 1 0 01.23-.18l.22-.07q.09 0 .19.04c.1.04.14.07.22.12l1.04.74q.12.08.17.2l.05.25z"/></symbol><symbol id="youtube-20"><path d="M12.5 10L8.75 7.5v5L12.5 10z" fill="none"/><path d="M1.87 10c0 2.34.24 3.71.42 4.41.05.19.14.37.27.52.13.15.29.26.48.34 2.62 1.01 6.95.98 6.95.98s4.33.03 6.95-.98a1.242 1.242 0 00.75-.86c.18-.7.42-2.07.42-4.41s-.24-3.71-.42-4.41a1.242 1.242 0 00-.75-.86c-2.62-1.01-6.95-.98-6.95-.98s-4.33-.03-6.95.98a1.242 1.242 0 00-.75.86c-.18.7-.42 2.07-.42 4.41z" fill="none"/></symbol></svg>