<svg xmlns="http://www.w3.org/2000/svg" xmlns:xlink="http://www.w3.org/1999/xlink" style="display:none"><defs><clipPath id="clip0_447_35649"><path fill="#fff" d="M0 0h24v24H0z"/></clipPath><clipPath id="clip0_447_35676"><path fill="#fff" d="M0 0h24v24H0z"/></clipPath><clipPath id="a"><path d="M0 0h24v24H0z"/></clipPath></defs><symbol id="address"><path fill="none" d="M12 12.75a3 3 0 100-6 3 3 0 000 6"/><path fill="none" d="M19.5 9.75c0 6.75-7.5 12-7.5 12s-7.5-5.25-7.5-12a7.49 7.49 0 1115 0"/></symbol><symbol id="arrow-right"><path d="M8.7 4.5l7.5 7.5-7.5 7.5" fill="none"/></symbol><symbol id="asterisk"><path d="M3.3 8l.12-3.06L.7 6.58 0 5.41l2.86-1.42L0 2.58l.7-1.17 2.72 1.64L3.3-.01h1.4l-.12 3.06L7.3 1.41 8 2.58 5.14 4 8 5.42l-.7 1.17-2.72-1.64.12 3.06H3.3z" fill="#f1471d"/></symbol><symbol id="at"><path fill="none" d="M12 15.75a3.75 3.75 0 100-7.5 3.75 3.75 0 000 7.5"/><path fill="none" d="M17.25 19.5c-1.43.95-3.41 1.5-5.25 1.5s-3.52-.53-5-1.52a9 9 0 01-3.82-9.24 9 9 0 0117.83 1.75c0 2.07-.75 3.75-2.62 3.75s-2.62-1.68-2.62-3.75V8.24"/></symbol><symbol id="basket"><path d="M12 12.38v5.25M17.25 9.38l-5.25-6-5.25 6M16.95 12.38l-.52 5.25M7.05 12.38l.53 5.25M2.25 9.38h19.5l-1.41 10.6a.73.73 0 01-.25.47c-.14.12-.31.19-.49.19H4.41c-.18 0-.36-.07-.49-.19a.707.707 0 01-.25-.47L2.26 9.38z" fill="none"/></symbol><symbol id="bonus-22"><path fill="none" d="M6.88 2.75V5.5m2.75-2.75V5.5m2.75-2.75V5.5M2.06 19.25h15.12m-10.71 0a7.6 7.6 0 01-4.41-6.87V8.26h15.12v4.12a7.5 7.5 0 01-4.41 6.87"/><path fill="none" d="M17.19 8.25A2.75 2.75 0 0119.94 11v.69a2.75 2.75 0 01-2.75 2.75h-.29"/></symbol><symbol id="check-round-26"><path fill="none" d="M8.94 13.81l2.44 2.44 5.69-5.69"/><path fill="none" d="M13 22.75a9.76 9.76 0 10-.01-19.51A9.76 9.76 0 0013 22.75"/></symbol><symbol id="close-20"><path fill="none" d="M12.5 7.5l-5 5m0-5l5 5m-2.5 5a7.5 7.5 0 100-15 7.5 7.5 0 000 15"/></symbol><symbol id="courier-26"><path fill="none" d="M13 13.11v10.45M3.32 7.81l9.68 5.3 9.68-5.3"/><path fill="none" d="M22.33 18.57l-8.94 4.89q-.18.1-.39.1a.6.6 0 01-.39-.1l-8.94-4.89a.8.8 0 01-.42-.71V8.14a.8.8 0 01.42-.71l8.94-4.89q.18-.1.39-.1a.6.6 0 01.39.1l8.94 4.89a.8.8 0 01.42.71v9.71a.8.8 0 01-.42.71z"/><path fill="none" d="M8.28 4.91l9.59 5.25v5.28"/></symbol><symbol id="delivery-1"><g fill="none"><g clip-path="url(#clip0_447_35649)" stroke="#F1471D" stroke-width="2" stroke-linecap="round" stroke-linejoin="round"><path d="M17.25 7.5h3.992a.75.75 0 01.695.469l1.313 3.281M2.25 13.5h15M18 20.25a2.25 2.25 0 100-4.5 2.25 2.25 0 000 4.5zM7.5 20.25a2.25 2.25 0 100-4.5 2.25 2.25 0 000 4.5zM15.75 18h-6"/><path d="M17.25 11.25h6v6a.75.75 0 01-.75.75h-2.25M5.25 18H3a.75.75 0 01-.75-.75V6.75A.75.75 0 013 6h14.25v9.878"/></g></g></symbol><symbol id="delivery-2"><g fill="none"><g clip-path="url(#clip0_447_35676)" stroke="#F1471D" stroke-width="2" stroke-linecap="round" stroke-linejoin="round"><path d="M2.25 20.25h21M4.5 3.75v16.5M16.5 20.25V3.75M21 20.25v-12M7.5 7.5H9M12 7.5h1.5M7.5 11.25H9M12 11.25h1.5M8.25 20.25V15h4.5v5.25M3.75 3.75h13.5M16.5 8.25h5.25"/></g></g></symbol><symbol id="delivery-3"><g fill="none"><path d="M15 1.5L13.5 9l6 2.25L9 22.5l1.5-7.5-6-2.25L15 1.5z" stroke="#F1471D" stroke-width="2" stroke-linecap="round" stroke-linejoin="round"/></g></symbol><symbol id="document-26"><path fill="none" d="M20.31 22.75H5.69a.8.8 0 01-.81-.81V4.06a.8.8 0 01.81-.81h9.75l5.69 5.69v13a.8.8 0 01-.81.81z"/><path fill="none" d="M15.44 3.25v5.69h5.69M9.75 13.81h6.5m-6.5 3.25h6.5"/></symbol><symbol id="double-quotes"><path fill="none" stroke="#f1471d" stroke-linecap="round" stroke-linejoin="round" stroke-width="2" d="M3.25 11.19h6.91q.34 0 .57.24c.23.24.24.36.24.57v6.5a.8.8 0 01-.81.81H4.07a.8.8 0 01-.81-.81V9.56A4.06 4.06 0 017.32 5.5m7.71 5.69h6.91a.8.8 0 01.81.81v6.5a.8.8 0 01-.81.81h-6.09a.8.8 0 01-.81-.81V9.56A4.06 4.06 0 0119.1 5.5m33.87 8.12h-6.91a.8.8 0 01-.81-.81v-6.5a.8.8 0 01.81-.81h6.09a.8.8 0 01.81.81v8.94a4.06 4.06 0 01-4.06 4.06m15.85-5.69h-6.91a.8.8 0 01-.81-.81v-6.5a.8.8 0 01.81-.81h6.09a.8.8 0 01.81.81v8.94a4.06 4.06 0 01-4.06 4.06"/></symbol><symbol id="download"><path fill="none" d="M12 3.8v16.5m-6.8-6.8l6.8 6.8 6.8-6.8"/></symbol><symbol id="dropdown"><g fill="none"><path d="M13 6l-5 5-5-5"/></g></symbol><symbol id="facebook-20" viewBox="0 0 20 20"><path fill="none" d="M10 17.5a7.5 7.5 0 100-15 7.5 7.5 0 000 15"/><path fill="none" d="M13.12 6.88h-1.25a1.9 1.9 0 00-1.88 1.88v8.75M7.5 11.25h5"/></symbol><symbol id="home"><path fill="none" d="M3.5 20.84h17v-9.22q0-.15-.06-.29a1 1 0 00-.17-.25L12.54 3.4a1 1 0 00-.25-.17q-.14-.06-.3-.06c-.16 0-.2.02-.3.06a1 1 0 00-.25.17l-7.73 7.68a1 1 0 00-.17.25 1 1 0 00-.06.29v9.22z"/></symbol><symbol id="instagram-20" viewBox="0 0 20 20"><circle cx="14.08" cy="5.67" r=".2" fill="none"/><circle cx="10" cy="10" r="3.13" fill="none"/><rect width="15" height="15" x="2.5" y="2.5" fill="none" rx="3.75" ry="3.75"/></symbol><symbol id="lens"><path fill="none" d="M10.5 18a7.5 7.5 0 100-15 7.5 7.5 0 000 15m5.3-2.2L21 21"/></symbol><symbol id="linkedin-20" viewBox="0 0 20 20"><path d="M16.88 2.5H3.12c-.35 0-.62.28-.62.62v13.75c0 .35.28.62.62.62h13.75c.35 0 .62-.28.62-.62V3.12c0-.35-.28-.62-.62-.62zM9.38 8.75v5M6.88 8.75v5" fill="none"/><path d="M9.38 10.94c0-.58.23-1.14.64-1.55a2.195 2.195 0 013.1 0c.41.41.64.97.64 1.55v2.81M6.87 7.03c.28 0 .5-.22.5-.5s-.22-.5-.5-.5-.5.22-.5.5.22.5.5.5z" fill="none"/></symbol><symbol id="merchandise-26"><path fill="none" d="M21.94 11.38V13c0 5.38-8.94 8.94-8.94 11.38 0-2.44-8.94-5.99-8.94-11.38v-1.62m4.06-5.69h9.75a4.87 4.87 0 014.88 4.88.8.8 0 01-.81.81H4.06a.8.8 0 01-.81-.81 4.87 4.87 0 014.88-4.88z"/><path fill="none" d="M13 5.69v-.81a3.25 3.25 0 013.25-3.25"/></symbol><symbol id="message"><path d="M7.85 12.35c.19 0 .35-.16.35-.35s-.16-.35-.35-.35-.35.16-.35.35.16.35.35.35zM12 12.35c.19 0 .35-.16.35-.35s-.16-.35-.35-.35-.35.16-.35.35.16.35.35.35zM16.15 12.35c.19 0 .35-.16.35-.35s-.16-.35-.35-.35-.35.16-.35.35.16.35.35.35z" fill="none"/><path d="M7.49 19.79a9.048 9.048 0 006.26 1.04 8.959 8.959 0 005.39-3.35 8.96 8.96 0 001.84-6.07 8.982 8.982 0 00-2.62-5.78 9.06 9.06 0 00-5.78-2.62c-2.18-.14-4.34.51-6.07 1.84a9.052 9.052 0 00-3.35 5.39A9.003 9.003 0 004.2 16.5L3.03 20a.81.81 0 00-.02.41c.03.14.1.26.2.36.1.1.22.17.36.2.14.03.28.03.41-.02l3.51-1.17z" fill="none"/></symbol><symbol id="messenger-20" viewBox="0 0 24 24"><path fill="none" d="M5.7 18.4V22L9 20.1c.9.3 1.9.4 3 .4 5.5 0 10-4.1 10-9.3S17.5 2 12 2 2 6.1 2 11.3c0 2.9 1.4 5.4 3.7 7.1"/><path fill="none" d="M11.3 9.2l-3.8 4.5 3.7-.9 1.5.9 3.8-4.5-3.5.9z"/></symbol><symbol id="payment-22"><path fill="none" d="M19.25 4.81H2.75a.7.7 0 00-.69.69v11c0 .38.31.69.69.69h16.5a.7.7 0 00.69-.69v-11a.7.7 0 00-.69-.69m-4.81 9.63h2.75m-6.88 0h1.38M2.06 8.25h17.88"/></symbol><symbol id="phone"><path fill="none" d="M15.04 14a1 1 0 01.35-.12q.19-.02.36.06l4.42 1.98a.7.7 0 01.35.31q.12.21.1.46a4.53 4.53 0 01-4.5 3.93A12.7 12.7 0 013.37 7.87a4.56 4.56 0 013.93-4.5q.25-.03.46.1t.31.35l1.98 4.42a.7.7 0 01-.06.71l-2 2.38a1 1 0 00-.12.36q0 .2.07.37a9.5 9.5 0 004.01 3.98 1 1 0 00.37.07q.2 0 .36-.12l2.35-2z"/></symbol><symbol id="question-26"><path fill="none" d="M13 14.62v-.81c1.79 0 3.25-1.27 3.25-2.84S14.79 8.13 13 8.13 9.75 9.4 9.75 10.97v.41m4.06 7.31c0-.45-.36-.81-.81-.81s-.81.36-.81.81.36.81.81.81.81-.36.81-.81M22.75 13a9.76 9.76 0 11-19.51-.01 9.76 9.76 0 0119.51.01"/></symbol><symbol id="quote"><path fill="none" d="M10.97 14.22H4.06a.8.8 0 01-.81-.81v-6.5a.8.8 0 01.81-.81h6.09a.8.8 0 01.81.81v8.94a4.06 4.06 0 01-4.06 4.06m15.85-5.69h-6.91q-.34 0-.57-.24c-.23-.24-.24-.36-.24-.57v-6.5a.8.8 0 01.81-.81h6.09a.8.8 0 01.81.81v8.94a4.06 4.06 0 01-4.06 4.06"/></symbol><symbol id="remove"><path d="M20.25 6H3.75m6 4.5v6m4.5-6v6M18.75 6v14.25A.75.75 0 0118 21H6a.75.75 0 01-.75-.75V6m10.5 0V4.5a1.499 1.499 0 00-1.5-1.5h-4.5a1.499 1.499 0 00-1.5 1.5V6" fill="none"/></symbol><symbol id="return-26"><path fill="none" d="M8.12 12.19l-4.88 4.88 4.88 4.88"/><path fill="none" d="M8.12 5.69h8.94a5.66 5.66 0 015.69 5.69 5.66 5.66 0 01-5.69 5.69H3.25"/></symbol><symbol id="shop"><path d="M4.5 13.09v7.16h15v-7.16M5.06 3.75h13.88c.16 0 .32.05.45.15.13.1.22.24.27.39L21 9H3l1.34-4.71c.04-.16.14-.29.27-.39.13-.1.29-.15.45-.15z" fill="none"/><path d="M9 9v1.5c0 .8-.32 1.56-.88 2.12s-1.33.88-2.12.88-1.56-.32-2.12-.88S3 11.29 3 10.5V9M15 9v1.5c0 .8-.32 1.56-.88 2.12s-1.33.88-2.12.88-1.56-.32-2.12-.88S9 11.29 9 10.5V9M21 9v1.5c0 .8-.32 1.56-.88 2.12s-1.33.88-2.12.88-1.56-.32-2.12-.88S15 11.29 15 10.5V9" fill="none"/></symbol><symbol id="sizes"><path d="M16.25 4.88h4.88v4.88M14.62 11.38l6.5-6.5M9.75 21.12H4.87v-4.88M11.38 14.62l-6.5 6.5" fill="none" stroke="#f1471d" stroke-linecap="round" stroke-linejoin="round" stroke-width="2"/></symbol><symbol id="taxy-26"><path fill="none" d="M1.62 13h22.75m-1.62 6.5v2.44a.8.8 0 01-.81.81H19.5a.8.8 0 01-.81-.81V19.5m-11.38 0v2.44a.8.8 0 01-.81.81H4.06a.8.8 0 01-.81-.81V19.5m3.25-3.25h1.62m9.76 0h1.62"/><path fill="none" d="M22.75 13l-3.02-5.28a.8.8 0 00-.71-.41H6.97a1 1 0 00-.41.11 1 1 0 00-.3.3L3.24 13v6.5h19.5z"/><path fill="none" d="M16.25 7.31l-1.42-3.55a1 1 0 00-.3-.37 1 1 0 00-.45-.14h-2.15a1 1 0 00-.45.14 1 1 0 00-.3.37L9.76 7.31"/></symbol><symbol id="telegram-20" viewBox="0 0 24 24"><path fill="none" d="M8.25 13.02l8.46 7.42q.16.14.34.17a1 1 0 00.38-.02 1 1 0 00.32-.21q.13-.15.18-.34l3.81-16.55v-.05q0-.03-.03-.04l-.05-.02h-.05L2.62 10.82a1 1 0 00-.29.23.6.6 0 00.06.7q.13.14.32.18zm0 0l13.44-9.64"/><path fill="none" d="M12.41 16.67l-2.87 2.98q-.16.16-.38.21a.6.6 0 01-.44-.04.8.8 0 01-.47-.7v-6.11"/></symbol><symbol id="tiktok-20" viewBox="0 0 20 20"><path d="M13.12 8.28c1.27.92 2.81 1.41 4.38 1.41V6.57a4.367 4.367 0 01-4.37-4.37h-3.12v10.31c0 .39-.11.78-.3 1.11a2.2 2.2 0 01-1.95 1.07c-.39-.01-.77-.13-1.1-.34a2.2 2.2 0 01-.78-.85 2.22 2.22 0 01-.24-1.13c.02-.39.15-.77.37-1.09.22-.32.52-.58.87-.75V7.19c-2.49.44-4.38 2.7-4.38 5.31 0 1.41.56 2.76 1.56 3.76a5.314 5.314 0 007.52 0c1-1 1.56-2.35 1.56-3.76V8.28z" fill="none"/></symbol><symbol id="time-22"><path fill="none" d="M11 19.25a8.25 8.25 0 100-16.5 8.25 8.25 0 000 16.5"/><path fill="none" d="M11 6.19V11h4.81"/></symbol><symbol id="time"><path fill="none" d="M12 21a9 9 0 100-18 9 9 0 000 18"/><path fill="none" d="M12 6.75V12h5.25"/></symbol><symbol id="user-circle"><path d="M12 21a9 9 0 10-.001-18.001A9 9 0 0012 21z" fill="none"/><path d="M12 15c2.07 0 3.75-1.68 3.75-3.75S14.07 7.5 12 7.5s-3.75 1.68-3.75 3.75S9.93 15 12 15z" fill="none"/><path d="M5.98 18.69a6.746 6.746 0 012.49-2.7c1.06-.65 2.28-1 3.53-1s2.47.35 3.53 1c1.06.65 1.92 1.59 2.49 2.7" fill="none"/></symbol><symbol id="viber-20" viewBox="0 0 24 24"><g fill="none"><g clip-path="url(#a)"><path d="M13.794 4.37a6.09 6.09 0 014.337 4.337m-4.957-1.859c1.28.342 2.136 1.199 2.478 2.478m-1.519 3.202a.62.62 0 01.588-.054l3.653 1.637a.62.62 0 01.371.643A3.74 3.74 0 0115.033 18 10.533 10.533 0 014.5 7.468a3.74 3.74 0 013.247-3.713.62.62 0 01.642.372l1.637 3.655a.62.62 0 01-.051.583L8.32 10.333a.61.61 0 00-.042.605c.64 1.311 1.996 2.65 3.31 3.284a.61.61 0 00.607-.045zm-9.22 7.722v3L8.13 21H12c11.25 0 11.25 0 11.25-9.9C23.25.75 23.25.75 12 .75S.75.75.75 11.213c0 4.537 0 7.912 4.163 9.037"/></g></g></symbol><symbol id="whatsapp-20" viewBox="0 0 24 24"><path fill="none" d="M6.9 20.6A10.03 10.03 0 0022 12c0-5.5-4.5-10-10-10a10.03 10.03 0 00-8.7 15l-.86 3.31a1 1 0 001.24 1.21z"/><path fill="none" d="M16.5 14.85q0 .24-.11.49t-.31.46q-.33.36-.74.53a2 2 0 01-.88.17q-.69 0-1.47-.33a8 8 0 01-1.55-.89q-.78-.57-1.48-1.26-.69-.7-1.26-1.47a8 8 0 01-.88-1.53q-.33-.76-.32-1.47 0-.46.16-.87t.52-.75q.43-.42.94-.42.2 0 .37.08.18.08.3.25l1.05 1.47q.12.17.18.32a.6.6 0 01-.03.59q-.09.15-.25.32l-.34.36s-.07.11-.07.18l.01.1.04.09q.12.22.42.58l.65.71q.36.36.72.66a3 3 0 00.66.45l.11.02q.12 0 .18-.08l.34-.34q.17-.17.32-.25a.6.6 0 01.59-.03q.14.06.32.18l1.49 1.06q.18.12.25.29t.07.35z"/></symbol><symbol id="youtube-20" viewBox="0 0 20 20"><path d="M12.5 10L8.75 7.5v5L12.5 10z" fill="none"/><path d="M1.87 10c0 2.34.24 3.71.42 4.41.05.19.14.37.27.52.13.15.29.26.48.34 2.62 1.01 6.95.98 6.95.98s4.33.03 6.95-.98a1.242 1.242 0 00.75-.86c.18-.7.42-2.07.42-4.41s-.24-3.71-.42-4.41a1.242 1.242 0 00-.75-.86c-2.62-1.01-6.95-.98-6.95-.98s-4.33-.03-6.95.98a1.242 1.242 0 00-.75.86c-.18.7-.42 2.07-.42 4.41z" fill="none"/></symbol></svg>