<svg xmlns="http://www.w3.org/2000/svg" width="68" height="24" viewBox="0 0 68 24"><path fill="none" stroke="#f1471d" stroke-linecap="round" stroke-linejoin="round" stroke-width="2" d="M3.25 11.19h6.91q.34 0 .57.24c.23.24.24.36.24.57v6.5a.8.8 0 0 1-.81.81H4.07a.8.8 0 0 1-.81-.81V9.56A4.06 4.06 0 0 1 7.32 5.5m7.71 5.69h6.91a.8.8 0 0 1 .81.81v6.5a.8.8 0 0 1-.81.81h-6.09a.8.8 0 0 1-.81-.81V9.56A4.06 4.06 0 0 1 19.1 5.5m33.87 8.12h-6.91a.8.8 0 0 1-.81-.81v-6.5a.8.8 0 0 1 .81-.81h6.09a.8.8 0 0 1 .81.81v8.94a4.06 4.06 0 0 1-4.06 4.06m15.85-5.69h-6.91a.8.8 0 0 1-.81-.81v-6.5a.8.8 0 0 1 .81-.81h6.09a.8.8 0 0 1 .81.81v8.94a4.06 4.06 0 0 1-4.06 4.06"/></svg>