<svg xmlns="http://www.w3.org/2000/svg" viewBox="0 0 20 20"><path d="m16.88,2.5H3.12c-.35,0-.62.28-.62.62v13.75c0,.35.28.62.62.62h13.75c.35,0,.62-.28.62-.62V3.12c0-.35-.28-.62-.62-.62Z" fill="none" stroke-linecap="round" stroke-linejoin="round"/><path d="m9.38,8.75v5" fill="none" stroke-linecap="round" stroke-linejoin="round"/><path d="m6.88,8.75v5" fill="none" stroke-linecap="round" stroke-linejoin="round"/><path d="m9.38,10.94c0-.58.23-1.14.64-1.55.41-.41.97-.64,1.55-.64s1.14.23,1.55.64c.41.41.64.97.64,1.55v2.81" fill="none" stroke-linecap="round" stroke-linejoin="round"/><path d="m6.87,7.03c.28,0,.5-.22.5-.5s-.22-.5-.5-.5-.5.22-.5.5.22.5.5.5Z" fill="none" stroke-miterlimit="10"/></svg>
