<svg xmlns="http://www.w3.org/2000/svg" width="24" height="24" viewBox="0 0 24 24"><path d="m7.85,12.35c.19,0,.35-.16.35-.35s-.16-.35-.35-.35-.35.16-.35.35.16.35.35.35Z" fill="none" stroke-miterlimit="10" stroke-width="2"/><path d="m12,12.35c.19,0,.35-.16.35-.35s-.16-.35-.35-.35-.35.16-.35.35.16.35.35.35Z" fill="none" stroke-miterlimit="10" stroke-width="2"/><path d="m16.15,12.35c.19,0,.35-.16.35-.35s-.16-.35-.35-.35-.35.16-.35.35.16.35.35.35Z" fill="none" stroke-miterlimit="10" stroke-width="2"/><path d="m7.49,19.79c1.89,1.09,4.11,1.46,6.26,1.04,2.14-.42,4.06-1.61,5.39-3.35,1.33-1.73,1.99-3.89,1.84-6.07-.14-2.18-1.07-4.23-2.62-5.78-1.54-1.54-3.6-2.47-5.78-2.62-2.18-.14-4.34.51-6.07,1.84-1.73,1.33-2.92,3.25-3.35,5.39-.42,2.14-.06,4.37,1.04,6.26l-1.17,3.5c-.04.13-.05.27-.02.41.03.14.1.26.2.36.1.1.22.17.36.2.14.03.28.03.41-.02l3.51-1.17Z" fill="none" stroke-linecap="round" stroke-linejoin="round" stroke-width="2"/></svg>
