<?xml version="1.0" encoding="UTF-8"?><svg id="a" xmlns="http://www.w3.org/2000/svg" width="24" height="24" viewBox="0 0 24 24"><path d="m4.5,13.09v7.16h15v-7.16" fill="none"  stroke-linecap="round" stroke-linejoin="round" stroke-width="2"/><path d="m5.06,3.75h13.88c.16,0,.32.05.45.15.13.1.22.24.27.39l1.34,4.71H3l1.34-4.71c.04-.16.14-.29.27-.39.13-.1.29-.15.45-.15Z" fill="none"  stroke-linecap="round" stroke-linejoin="round" stroke-width="2"/><path d="m9,9v1.5c0,.8-.32,1.56-.88,2.12-.56.56-1.33.88-2.12.88s-1.56-.32-2.12-.88-.88-1.33-.88-2.12v-1.5" fill="none"  stroke-linecap="round" stroke-linejoin="round" stroke-width="2"/><path d="m15,9v1.5c0,.8-.32,1.56-.88,2.12s-1.33.88-2.12.88-1.56-.32-2.12-.88c-.56-.56-.88-1.33-.88-2.12v-1.5" fill="none"  stroke-linecap="round" stroke-linejoin="round" stroke-width="2"/><path d="m21,9v1.5c0,.8-.32,1.56-.88,2.12-.56.56-1.33.88-2.12.88s-1.56-.32-2.12-.88c-.56-.56-.88-1.33-.88-2.12v-1.5" fill="none"  stroke-linecap="round" stroke-linejoin="round" stroke-width="2"/></svg>