<svg xmlns="http://www.w3.org/2000/svg" width="26" height="26" viewBox="0 0 26 26"><path fill="none" d="M1.62 13h22.75m-1.62 6.5v2.44a.8.8 0 0 1-.81.81H19.5a.8.8 0 0 1-.81-.81V19.5m-11.38 0v2.44a.8.8 0 0 1-.81.81H4.06a.8.8 0 0 1-.81-.81V19.5m3.25-3.25h1.62m9.76 0h1.62"/><path fill="none" d="m22.75 13-3.02-5.28a.8.8 0 0 0-.71-.41H6.97a1 1 0 0 0-.41.11 1 1 0 0 0-.3.3L3.24 13v6.5h19.5z"/><path fill="none" d="m16.25 7.31-1.42-3.55a1 1 0 0 0-.3-.37 1 1 0 0 0-.45-.14h-2.15a1 1 0 0 0-.45.14 1 1 0 0 0-.3.37L9.76 7.31"/></svg>