<svg xmlns="http://www.w3.org/2000/svg" viewBox="0 0 20 20"><path d="m13.12,8.28c1.27.92,2.81,1.41,4.38,1.41v-3.12c-1.16,0-2.27-.46-3.09-1.28-.82-.82-1.28-1.93-1.28-3.09h-3.12v10.31c0,.39-.11.78-.3,1.11s-.49.61-.83.8c-.34.19-.73.28-1.12.27-.39-.01-.77-.13-1.1-.34-.33-.21-.6-.5-.78-.85-.18-.35-.26-.74-.24-1.13.02-.39.15-.77.37-1.09.22-.32.52-.58.87-.75v-3.34c-2.49.44-4.38,2.7-4.38,5.31,0,1.41.56,2.76,1.56,3.76,1,1,2.35,1.56,3.76,1.56s2.76-.56,3.76-1.56c1-1,1.56-2.35,1.56-3.76v-4.22Z" fill="none"/></svg>
