<?xml version="1.0" encoding="UTF-8"?><svg id="a" xmlns="http://www.w3.org/2000/svg" width="24" height="24" viewBox="0 0 24 24"><path d="m12,21c4.97,0,9-4.03,9-9S16.97,3,12,3,3,7.03,3,12s4.03,9,9,9Z" fill="none"  stroke-linecap="round" stroke-linejoin="round" stroke-width="2"/><path d="m12,15c2.07,0,3.75-1.68,3.75-3.75s-1.68-3.75-3.75-3.75-3.75,1.68-3.75,3.75,1.68,3.75,3.75,3.75Z" fill="none"  stroke-linecap="round" stroke-linejoin="round" stroke-width="2"/><path d="m5.98,18.69c.56-1.11,1.43-2.05,2.49-2.7,1.06-.65,2.28-1,3.53-1s2.47.35,3.53,1c1.06.65,1.92,1.59,2.49,2.7" fill="none"  stroke-linecap="round" stroke-linejoin="round" stroke-width="2"/></svg>