<svg xmlns="http://www.w3.org/2000/svg" fill="none" viewBox="0 0 24 24"><g clip-path="url(#a)"><path stroke-linecap="round" stroke-linejoin="round" stroke-miterlimit="10"  d="M13.794 4.37a6.09 6.09 0 0 1 4.337 4.337m-4.957-1.859c1.28.342 2.136 1.199 2.478 2.478m-1.519 3.202a.62.62 0 0 1 .588-.054l3.653 1.637a.62.62 0 0 1 .371.643A3.74 3.74 0 0 1 15.033 18 10.533 10.533 0 0 1 4.5 7.468a3.74 3.74 0 0 1 3.247-3.713.62.62 0 0 1 .642.372l1.637 3.655a.62.62 0 0 1-.051.583L8.32 10.333a.61.61 0 0 0-.042.605c.64 1.311 1.996 2.65 3.31 3.284a.61.61 0 0 0 .607-.045zm-9.22 7.722v3L8.13 21H12c11.25 0 11.25 0 11.25-9.9C23.25.75 23.25.75 12 .75S.75.75.75 11.213c0 4.537 0 7.912 4.163 9.037"/></g><defs><clipPath id="a"><path fill="none" d="M0 0h24v24H0z"/></clipPath></defs></svg>