<svg xmlns="http://www.w3.org/2000/svg" width="20" height="20" viewBox="0 0 20 20"><path fill="none" stroke-linecap="round" stroke-linejoin="round" d="M10.82 6.08a3.4 3.4 0 0 1 2.41 2.38m-2.75-1.03q1.08.3 1.37 1.36m-.84 1.75s.1-.05.16-.06q.08 0 .17.03l2.03.9q.11.05.16.14t.04.21a2.06 2.06 0 0 1-2.06 1.78 6 6 0 0 1-4.13-1.69 5.7 5.7 0 0 1-1.71-4.08c0-.5.18-.98.51-1.35s.79-.62 1.29-.68q.11-.01.21.04t.14.16l.91 2q.03.08.03.16a.3.3 0 0 1-.05.16l-.92 1.08s-.05.1-.06.16q0 .1.03.17a4.3 4.3 0 0 0 1.84 1.8q.08.04.17.03.1 0 .16-.06z"/><path fill="none" stroke-miterlimit="10" d="M15.63 4.26c-.38-.35-1.92-1.44-5.34-1.45 0 0-4.04-.24-6.02 1.53-1.1 1.08-1.48 2.65-1.52 4.59s-.09 5.6 3.5 6.59v1.51s0 .61.39.74c.5.15.79-.31 1.26-.81l.89-.99q2.31.21 4.56-.33c.5-.16 3.3-.51 3.76-4.16.49-3.76-.21-6.14-1.47-7.21Z"/></svg>
