<svg xmlns="http://www.w3.org/2000/svg" width="20" height="20" viewBox="0 0 20 20"><path fill="none" stroke-linecap="round" stroke-linejoin="round" d="M6.43 16.02A7.01 7.01 0 0 0 17 10c0-3.85-3.15-7-7-7a7.02 7.02 0 0 0-6.09 10.5l-.68 2.61c-.1.39.26.75.65.64z"/><path fill="none" stroke-miterlimit="10" d="M13.15 11.99q0 .17-.08.34t-.21.32q-.22.25-.52.37-.28.12-.62.12-.48 0-1.03-.23c-.55-.23-.73-.36-1.09-.62a9 9 0 0 1-1.91-1.91 6 6 0 0 1-.62-1.07q-.23-.54-.23-1.03 0-.32.11-.61t.36-.53q.3-.3.66-.3.14 0 .26.06l.21.18.73 1.03q.09.12.13.22t.04.19q0 .12-.07.22a1 1 0 0 1-.18.22l-.24.25s-.05.08-.05.13v.07q0 .04.03.06.09.15.29.4a10 10 0 0 0 .96.96q.24.2.41.29l.06.03.08.01q.07 0 .13-.05l.24-.24a1 1 0 0 1 .23-.18l.22-.07q.09 0 .19.04c.1.04.14.07.22.12l1.04.74q.12.08.17.2l.05.25Z"/></svg>
