<svg xmlns="http://www.w3.org/2000/svg" viewBox="0 0 24 24"><path fill="none" d="M6.9 20.6A10.03 10.03 0 0 0 22 12c0-5.5-4.5-10-10-10a10.03 10.03 0 0 0-8.7 15l-.86 3.31a1 1 0 0 0 1.24 1.21z"/><path fill="none" d="M16.5 14.85q0 .24-.11.49t-.31.46q-.33.36-.74.53a2 2 0 0 1-.88.17q-.69 0-1.47-.33a8 8 0 0 1-1.55-.89q-.78-.57-1.48-1.26-.69-.7-1.26-1.47a8 8 0 0 1-.88-1.53q-.33-.76-.32-1.47 0-.46.16-.87t.52-.75q.43-.42.94-.42.2 0 .37.08.18.08.3.25l1.05 1.47q.12.17.18.32a.6.6 0 0 1-.03.59q-.09.15-.25.32l-.34.36s-.07.11-.07.18l.01.1.04.09q.12.22.42.58l.65.71q.36.36.72.66a3 3 0 0 0 .66.45l.11.02q.12 0 .18-.08l.34-.34q.17-.17.32-.25a.6.6 0 0 1 .59-.03q.14.06.32.18l1.49 1.06q.18.12.25.29t.07.35Z"/></svg>