<svg xmlns="http://www.w3.org/2000/svg" width="20" height="20" viewBox="0 0 20 20"><path d="m12.5,10l-3.75-2.5v5l3.75-2.5Z" fill="none"/><path d="m1.87,10c0,2.34.24,3.71.42,4.41.05.19.14.37.27.52.13.15.29.26.48.34,2.62,1.01,6.95.98,6.95.98,0,0,4.33.03,6.95-.98.18-.07.35-.19.48-.34.13-.15.22-.33.27-.52.18-.7.42-2.07.42-4.41s-.24-3.71-.42-4.41c-.05-.19-.14-.37-.27-.52-.13-.15-.3-.27-.48-.34-2.62-1.01-6.95-.98-6.95-.98,0,0-4.33-.03-6.95.98-.18.07-.35.19-.48.34-.13.15-.22.33-.27.52-.18.7-.42,2.07-.42,4.41Z" fill="none"/></svg>