<svg width="40" height="40" viewBox="0 0 40 40" fill="none" xmlns="http://www.w3.org/2000/svg">
<path d="M3.4066 27.231L0.0184073 39.3655C-0.0235851 39.5161 0.00717678 39.6777 0.101415 39.8022C0.196142 39.9268 0.343604 40 0.499854 40H39.5C39.6504 40 39.793 39.9324 39.8877 39.8157C39.9824 39.6992 40.02 39.5461 39.9897 39.3987L31.9272 0.398682C31.8789 0.166504 31.6748 0 31.4375 0H5.72107C5.4447 0 5.22106 0.223877 5.22106 0.5C5.22106 0.776123 5.4447 1 5.72107 1H31.0302L34.0737 15.7219H18.5697C11.5346 15.7219 5.29919 20.4546 3.4066 27.231ZM34.2803 16.7219L38.8862 39H1.15855L4.3695 27.5C6.14197 21.1541 11.9813 16.7219 18.5697 16.7219H34.2803Z" fill="#1D1D1D"/>
<path d="M15.6768 24.9727C13.7315 24.9727 12.1484 26.5554 12.1484 28.5007C12.1484 30.446 13.7315 32.0288 15.6768 32.0288C17.6221 32.0288 19.2046 30.446 19.2046 28.5007C19.2046 26.5554 17.6221 24.9727 15.6768 24.9727ZM15.6768 31.0288C14.2827 31.0288 13.1484 29.8948 13.1484 28.5007C13.1484 27.1067 14.2827 25.9727 15.6768 25.9727C17.0708 25.9727 18.2046 27.1067 18.2046 28.5007C18.2046 29.8948 17.0708 31.0288 15.6768 31.0288Z" fill="#1D1D1D"/>
<path d="M26.0156 32.0288C27.961 32.0288 29.5435 30.446 29.5435 28.5007C29.5435 26.5554 27.961 24.9727 26.0156 24.9727C24.0703 24.9727 22.4873 26.5554 22.4873 28.5007C22.4873 30.446 24.0703 32.0288 26.0156 32.0288ZM26.0156 25.9727C27.4097 25.9727 28.5435 27.1067 28.5435 28.5007C28.5435 29.8948 27.4097 31.0288 26.0156 31.0288C24.6216 31.0288 23.4873 29.8948 23.4873 28.5007C23.4873 27.1067 24.6216 25.9727 26.0156 25.9727Z" fill="#1D1D1D"/>
</svg>
