<svg width="40" height="40" viewBox="0 0 40 40" fill="none" xmlns="http://www.w3.org/2000/svg">
<path d="M39.8535 0.853516C40.0488 0.658203 40.0488 0.341797 39.8535 0.146484C39.6582 -0.0488281 39.3418 -0.0488281 39.1465 0.146484L32.2095 7.0835H7.79053L0.853516 0.146484C0.658203 -0.0488281 0.341797 -0.0488281 0.146484 0.146484C-0.0488281 0.341797 -0.0488281 0.658203 0.146484 0.853516L7.0835 7.79053V32.2095L0.146484 39.1465C-0.0488281 39.3418 -0.0488281 39.6582 0.146484 39.8535C0.244141 39.9512 0.37207 40 0.5 40C0.62793 40 0.755859 39.9512 0.853516 39.8535L7.79053 32.9165H32.2095L39.1465 39.8535C39.2441 39.9512 39.3721 40 39.5 40C39.6279 40 39.7559 39.9512 39.8535 39.8535C40.0488 39.6582 40.0488 39.3418 39.8535 39.1465L32.9165 32.2095V7.79053L39.8535 0.853516ZM31.2095 8.0835L26.6494 12.6436C24.8867 11.0487 22.5587 10.0679 20 10.0679C17.4413 10.0679 15.1133 11.0487 13.3506 12.6436L8.79053 8.0835H31.2095ZM19.293 20L13.3503 25.9427C11.9361 24.3619 11.0679 22.283 11.0679 20C11.0679 17.717 11.9361 15.6381 13.3503 14.0573L19.293 20ZM14.0573 13.3503C15.6381 11.936 17.717 11.0679 20 11.0679C22.283 11.0679 24.3619 11.936 25.9427 13.3503L20 19.293L14.0573 13.3503ZM20 20.707L25.9427 26.6497C24.3619 28.064 22.283 28.9321 20 28.9321C17.717 28.9321 15.6381 28.064 14.0573 26.6497L20 20.707ZM20.707 20L26.6497 14.0573C28.0639 15.6381 28.9321 17.717 28.9321 20C28.9321 22.283 28.0639 24.3619 26.6497 25.9427L20.707 20ZM8.0835 8.79053L12.6436 13.3506C11.0487 15.1133 10.0679 17.4413 10.0679 20C10.0679 22.5587 11.0487 24.8867 12.6436 26.6494L8.0835 31.2095V8.79053ZM8.79053 31.9165L13.3506 27.3564C15.1133 28.9513 17.4413 29.9321 20 29.9321C22.5587 29.9321 24.8867 28.9513 26.6494 27.3564L31.2095 31.9165H8.79053ZM31.9165 31.2095L27.3564 26.6494C28.9513 24.8867 29.9321 22.5587 29.9321 20C29.9321 17.4413 28.9513 15.1133 27.3564 13.3506L31.9165 8.79053V31.2095Z" fill="#1D1D1D"/>
</svg>
