<svg width="40" height="40" viewBox="0 0 40 40" fill="none" xmlns="http://www.w3.org/2000/svg">
<path d="M39.8535 0.146484C39.6582 -0.0488281 39.3418 -0.0488281 39.1465 0.146484L24.7493 14.5437L20.4292 7.32666C20.2485 7.0249 19.7515 7.0249 19.5708 7.32666L15.2507 14.5437L0.853516 0.146484C0.658203 -0.0488281 0.341797 -0.0488281 0.146484 0.146484C-0.0488281 0.341797 -0.0488281 0.658203 0.146484 0.853516L14.7213 15.4283L4.70605 32.1597C4.61377 32.314 4.61133 32.5063 4.7002 32.6631C4.78906 32.8198 4.95508 32.9165 5.13525 32.9165H6.37646L0.146484 39.1465C-0.0488281 39.3418 -0.0488281 39.6582 0.146484 39.8535C0.244141 39.9512 0.37207 40 0.5 40C0.62793 40 0.755859 39.9512 0.853516 39.8535L7.79053 32.9165H32.2095L39.1465 39.8535C39.2441 39.9512 39.3721 40 39.5 40C39.6279 40 39.7559 39.9512 39.8535 39.8535C40.0488 39.6582 40.0488 39.3418 39.8535 39.1465L33.6235 32.9165H34.8647C35.0449 32.9165 35.2109 32.8198 35.2998 32.6631C35.3887 32.5063 35.3862 32.314 35.2939 32.1597L25.2787 15.4283L39.8535 0.853516C40.0488 0.658203 40.0488 0.341797 39.8535 0.146484ZM20 8.55713L24.02 15.2729L20 19.293L15.98 15.2729L20 8.55713ZM6.01709 31.9165L15.4504 16.1575L19.293 20L7.37646 31.9165H6.01709ZM8.79053 31.9165L20 20.707L31.2095 31.9165H8.79053ZM33.9829 31.9165H32.6235L20.707 20L24.5496 16.1575L33.9829 31.9165Z" fill="#1D1D1D"/>
</svg>
