<svg xmlns="http://www.w3.org/2000/svg" width="105" height="17" viewBox="0 0 105 17"><path fill="#fff" d="M100 .17a5 5 0 0 0-4.31 7.49l-2.77 2.77-6.38-6.38a1 1 0 0 0-1.41 0l-6.38 6.38-6.38-6.38a1 1 0 0 0-1.41 0l-6.38 6.38-6.38-6.38a1 1 0 0 0-1.41 0l-6.38 6.38-6.38-6.38a1 1 0 0 0-1.41 0l-6.38 6.38-6.38-6.38a1 1 0 0 0-1.41 0l-6.38 6.38-7.63-7.63a1 1 0 0 0-1.38-.03L7.69 7.65a4.99 4.99 0 1 0 1.46 1.39l4.57-4.16 7.66 7.66a1 1 0 0 0 1.41 0l6.38-6.38 6.38 6.38q.3.29.71.29c.41 0 .52-.11.71-.29l6.38-6.38 6.38 6.38a1 1 0 0 0 1.41 0l6.38-6.38 6.38 6.38c.38.38 1.04.38 1.41 0l6.38-6.38 6.38 6.38c.38.38 1.04.38 1.41 0l6.38-6.38 6.38 6.38q.3.29.71.29c.41 0 .52-.11.71-.29l3.39-3.39A5 5 0 1 0 100 .17M5 14.83a3 3 0 0 1-3-3 3 3 0 0 1 4.14-2.77c.64.27 1.16.75 1.48 1.36q.16.3.25.63l.02.07q.1.34.1.72a3 3 0 0 1-3 3Zm95-6.67q-.27 0-.52-.05l-.2-.04-.26-.08q-.3-.1-.58-.27a3 3 0 0 1-1.27-1.56 4 4 0 0 1-.18-.99c0-1.65 1.35-3 3-3s3 1.35 3 3-1.35 3-3 3Z"/><path fill="#1d1d1d" d="M100 2.17a3 3 0 0 0-2.82 3.99c.23.66.68 1.21 1.27 1.56a3 3 0 0 0 1.04.39q.25.05.52.05c1.65 0 3-1.35 3-3s-1.35-3-3-3ZM7.88 11.05a3 3 0 0 0-1.73-1.99 3 3 0 0 0-1.14-.23c-1.65 0-3 1.35-3 3s1.35 3 3 3a3 3 0 0 0 2.9-3.72l-.02-.07Z"/></svg>